<svg width="2069" height="1212" xmlns="http://www.w3.org/2000/svg" xmlns:xlink="http://www.w3.org/1999/xlink" overflow="hidden"><defs><clipPath id="clip0"><rect x="1508" y="52" width="2069" height="1212"/></clipPath><clipPath id="clip1"><rect x="1509" y="53" width="2065" height="1208"/></clipPath><clipPath id="clip2"><rect x="1691" y="223" width="1837" height="830"/></clipPath><clipPath id="clip3"><rect x="1691" y="223" width="1837" height="830"/></clipPath><clipPath id="clip4"><rect x="1509" y="53" width="2065" height="1208"/></clipPath><clipPath id="clip5"><rect x="1509" y="53" width="2065" height="1208"/></clipPath><clipPath id="clip6"><rect x="1509" y="53" width="2065" height="1208"/></clipPath><clipPath id="clip7"><rect x="1509" y="53" width="2065" height="1208"/></clipPath><clipPath id="clip8"><rect x="1509" y="53" width="2065" height="1208"/></clipPath><clipPath id="clip9"><rect x="1509" y="53" width="2065" height="1208"/></clipPath><clipPath id="clip10"><rect x="1509" y="53" width="2065" height="1208"/></clipPath><clipPath id="clip11"><rect x="1509" y="53" width="2065" height="1208"/></clipPath><clipPath id="clip12"><rect x="1509" y="53" width="2065" height="1208"/></clipPath><clipPath id="clip13"><rect x="1509" y="53" width="2065" height="1208"/></clipPath><clipPath id="clip14"><rect x="1509" y="53" width="2065" height="1208"/></clipPath><clipPath id="clip15"><rect x="1509" y="53" width="2065" height="1208"/></clipPath><clipPath id="clip16"><rect x="1509" y="53" width="2065" height="1208"/></clipPath><clipPath id="clip17"><rect x="1509" y="53" width="2065" height="1208"/></clipPath><clipPath id="clip18"><rect x="1509" y="53" width="2065" height="1208"/></clipPath><clipPath id="clip19"><rect x="1509" y="53" width="2065" height="1208"/></clipPath><clipPath id="clip20"><rect x="1509" y="53" width="2065" height="1208"/></clipPath><clipPath id="clip21"><rect x="1509" y="53" width="2065" height="1208"/></clipPath><clipPath id="clip22"><rect x="1509" y="53" width="2065" height="1208"/></clipPath><clipPath id="clip23"><rect x="1509" y="53" width="2065" height="1208"/></clipPath><clipPath id="clip24"><rect x="1509" y="53" width="2065" height="1208"/></clipPath></defs><g clip-path="url(#clip0)" transform="translate(-1508 -52)"><rect x="1509" y="52.9999" width="2066" height="1209" fill="#FFFFFF"/><g clip-path="url(#clip1)"><path d="M1691.5 958.532 3524.5 958.532M1691.5 866.529 3524.5 866.529M1691.5 774.526 3524.5 774.526M1691.5 682.523 3524.5 682.523M1691.5 590.52 3524.5 590.52M1691.5 498.517 3524.5 498.517M1691.5 407.514 3524.5 407.514M1691.5 315.511 3524.5 315.511M1691.5 223.5 3524.5 223.5" stroke="#D9D9D9" stroke-width="3.4375" stroke-linejoin="round" stroke-miterlimit="10" fill="none"/></g><g clip-path="url(#clip2)"><path d="M1782.06 272.009 1864.06 272.009 1864.06 1050 1782.06 1050ZM2148.07 384.013 2231.07 384.013 2231.07 1050 2148.07 1050ZM2515.08 616.02 2597.09 616.02 2597.09 1050 2515.08 1050ZM2881.09 841.028 2964.1 841.028 2964.1 1050 2881.09 1050ZM3248.11 528.017 3330.11 528.017 3330.11 1050 3248.11 1050Z" fill="#EB5501"/></g><g clip-path="url(#clip3)"><path d="M1886.06 327.011 1968.06 327.011 1968.06 1050 1886.06 1050ZM2253.07 473.016 2335.08 473.016 2335.08 1050 2253.07 1050ZM2619.09 659.022 2701.09 659.022 2701.09 1050 2619.09 1050ZM2986.1 855.028 3068.1 855.028 3068.1 1050 2986.1 1050ZM3352.11 579.019 3434.11 579.019 3434.11 1050 3352.11 1050Z" fill="#199987"/></g><g clip-path="url(#clip4)"><path d="M1691.5 1050.5 3524.5 1050.5" stroke="#D9D9D9" stroke-width="3.4375" stroke-linejoin="round" stroke-miterlimit="10" fill="none" fill-rule="evenodd"/></g><g clip-path="url(#clip5)"><text fill="#595959" font-family="Calibri,Calibri_MSFontService,sans-serif" font-weight="400" font-size="41" transform="matrix(1 0 0 1 1632.74 1062)">0</text></g><g clip-path="url(#clip6)"><text fill="#595959" font-family="Calibri,Calibri_MSFontService,sans-serif" font-weight="400" font-size="41" transform="matrix(1 0 0 1 1538.85 970)">10’000</text></g><g clip-path="url(#clip7)"><text fill="#595959" font-family="Calibri,Calibri_MSFontService,sans-serif" font-weight="400" font-size="41" transform="matrix(1 0 0 1 1538.85 878)">20’000</text></g><g clip-path="url(#clip8)"><text fill="#595959" font-family="Calibri,Calibri_MSFontService,sans-serif" font-weight="400" font-size="41" transform="matrix(1 0 0 1 1538.85 786)">30’000</text></g><g clip-path="url(#clip9)"><text fill="#595959" font-family="Calibri,Calibri_MSFontService,sans-serif" font-weight="400" font-size="41" transform="matrix(1 0 0 1 1538.85 694)">40’000</text></g><g clip-path="url(#clip10)"><text fill="#595959" font-family="Calibri,Calibri_MSFontService,sans-serif" font-weight="400" font-size="41" transform="matrix(1 0 0 1 1538.85 602)">50’000</text></g><g clip-path="url(#clip11)"><text fill="#595959" font-family="Calibri,Calibri_MSFontService,sans-serif" font-weight="400" font-size="41" transform="matrix(1 0 0 1 1538.85 511)">60’000</text></g><g clip-path="url(#clip12)"><text fill="#595959" font-family="Calibri,Calibri_MSFontService,sans-serif" font-weight="400" font-size="41" transform="matrix(1 0 0 1 1538.85 419)">70’000</text></g><g clip-path="url(#clip13)"><text fill="#595959" font-family="Calibri,Calibri_MSFontService,sans-serif" font-weight="400" font-size="41" transform="matrix(1 0 0 1 1538.85 327)">80’000</text></g><g clip-path="url(#clip14)"><text fill="#595959" font-family="Calibri,Calibri_MSFontService,sans-serif" font-weight="400" font-size="41" transform="matrix(1 0 0 1 1538.85 235)">90’000</text></g><g clip-path="url(#clip15)"><text fill="#595959" font-family="Calibri,Calibri_MSFontService,sans-serif" font-weight="400" font-size="41" transform="matrix(1 0 0 1 1863.24 1116)">A</text></g><g clip-path="url(#clip16)"><text fill="#595959" font-family="Calibri,Calibri_MSFontService,sans-serif" font-weight="400" font-size="41" transform="matrix(1 0 0 1 2230.49 1116)">B</text></g><g clip-path="url(#clip17)"><text fill="#595959" font-family="Calibri,Calibri_MSFontService,sans-serif" font-weight="400" font-size="41" transform="matrix(1 0 0 1 2597.25 1116)">C</text></g><g clip-path="url(#clip18)"><text fill="#595959" font-family="Calibri,Calibri_MSFontService,sans-serif" font-weight="400" font-size="41" transform="matrix(1 0 0 1 2962.1 1116)">D</text></g><g clip-path="url(#clip19)"><text fill="#595959" font-family="Calibri,Calibri_MSFontService,sans-serif" font-weight="400" font-size="41" transform="matrix(1 0 0 1 3310.35 1116)">Avg</text></g><g clip-path="url(#clip20)"><text fill="#595959" font-family="Calibri,Calibri_MSFontService,sans-serif" font-weight="400" font-size="64" transform="matrix(1 0 0 1 2205.99 149)">Comparison of Time Lines</text></g><g clip-path="url(#clip21)"><rect x="2266" y="1184" width="23" height="23" fill="#EB5501"/></g><g clip-path="url(#clip22)"><text fill="#595959" font-family="Calibri,Calibri_MSFontService,sans-serif" font-weight="400" font-size="41" transform="matrix(1 0 0 1 2298.6 1207)">Current</text></g><g clip-path="url(#clip23)"><rect x="2476" y="1184" width="23" height="23" fill="#199987"/></g><g clip-path="url(#clip24)"><text fill="#595959" font-family="Calibri,Calibri_MSFontService,sans-serif" font-weight="400" font-size="41" transform="matrix(1 0 0 1 2508.72 1207)">Backstreet Solution</text></g><rect x="1509.5" y="53.5001" width="2066" height="1209" stroke="#D9D9D9" stroke-width="3.4375" stroke-linejoin="round" stroke-miterlimit="10" fill="none"/></g></svg>